<svg width="512" height="364" viewBox="0 0 512 364" fill="none" xmlns="http://www.w3.org/2000/svg">
<path d="M23.5991 2.5C20.2991 3.8 16.7991 5.7 15.7991 6.7C14.0991 8.5 18.0991 12.4 134.599 121C200.899 182.9 255.699 233.5 256.399 233.5C257.699 233.5 493.999 6.2 493.999 4.9C493.999 4.5 491.499 3.2 488.499 2.1L482.899 -3.47942e-06H256.199H29.4991L23.5991 2.5Z" fill="#BA431D"/>
<path d="M434 109.7C391.4 150.8 356.5 184.7 356.5 185.1C356.5 186.1 511 330.3 511.6 329.8C511.8 329.5 511.9 263.1 511.8 182.2L511.5 35L434 109.7Z" fill="#BA431D"/>
<path d="M0.1 187.1C0.2 267.1 0.5 333.6 0.9 334.8C1.4 336.9 9.3 329.7 78.5 263.1C120.9 222.3 155.6 188.6 155.8 188.1C156 187.6 124 157.4 84.8 120.9C45.6 84.4 10.5 51.7 6.8 48.1L0 41.7L0.1 187.1Z" fill="#BA431D"/>
<path d="M298.899 240.1C281.099 257.2 265.099 271.9 263.299 272.6C259.199 274.4 253.799 274.4 249.699 272.6C247.899 271.8 231.999 257.6 214.199 241L181.899 210.9L178.599 213.7C176.699 215.2 141.399 249.1 100.099 289C48.4994 338.8 25.3994 361.8 26.0994 362.5C26.7994 363.2 99.9994 363.5 256.299 363.5C483.399 363.5 485.499 363.5 489.699 361.5L493.999 359.5L413.599 284.5C369.399 243.3 332.799 209.4 332.199 209.2C331.699 209.1 316.699 222.9 298.899 240.1Z" fill="#BA431D"/>
</svg>
