<svg width="113" height="100" viewBox="0 0 113 100" fill="none" xmlns="http://www.w3.org/2000/svg">
<path d="M87.6367 0H25.3634C11.3556 0 0 10.0492 0 22.4454V77.5546C0 89.9508 11.3556 100 25.3634 100H87.6367C101.644 100 113 89.9508 113 77.5546V22.4454C113 10.0492 101.644 0 87.6367 0Z" fill="#BA431D"/>
<path d="M35.3475 10.3914H79.1389C80.112 10.7965 81.5718 10.7965 82.5449 11.2017C86.8152 11.7779 90.8079 13.3343 94.0742 15.6961C97.3404 18.0578 99.7509 21.1312 101.035 24.5709C101.753 26.553 102.242 28.588 102.494 30.6478V66.2989C101.799 70.8173 99.795 75.1272 96.6555 78.8579C93.9621 81.4561 90.5855 83.5022 86.788 84.8372C82.9906 86.1722 78.8745 86.7601 74.7598 86.5553H38.2669C31.7544 86.8185 25.3511 85.0894 20.2637 81.6938C17.1701 79.4683 14.7288 76.6832 13.1264 73.5515C11.5241 70.4198 10.8032 67.0244 11.0189 63.6251V35.2662C10.9385 33.2322 11.1015 31.1965 11.5054 29.1893C11.9968 25.0359 14.0478 21.1171 17.3671 17.9897C20.6864 14.8624 25.1051 12.6857 29.9952 11.7688L35.3475 10.3914ZM20.2637 64.6784C20.0563 66.6904 20.3796 68.7159 21.2109 70.613C22.0423 72.51 23.3617 74.2328 25.0767 75.6608C26.7917 77.0887 28.8609 78.1873 31.1393 78.8795C33.4178 79.5717 35.8504 79.8409 38.2669 79.6681C50.9177 80.0733 63.5686 80.0733 76.2195 79.6681C87.4106 79.6681 93.7361 73.9964 94.2226 64.6784C94.7092 54.1451 94.7092 43.6118 94.2226 33.0785C94.3487 31.0824 93.9694 29.0865 93.1092 27.2203C92.2491 25.3541 90.9273 23.6594 89.2298 22.2459C87.5322 20.8325 85.4967 19.732 83.2554 19.0159C81.014 18.2997 78.6169 17.9838 76.2195 18.0888C63.5686 17.6837 50.9177 17.6837 38.2669 18.0888C35.8504 17.9161 33.4178 18.1853 31.1393 18.8775C28.8609 19.5697 26.7917 20.6682 25.0767 22.0962C23.3617 23.5241 22.0423 25.2469 21.2109 27.144C20.3796 29.0411 20.0563 31.0665 20.2637 33.0785V64.6784Z" fill="#F8EEDE"/>
<path d="M33.5957 49.0396C33.6085 43.778 36.1246 38.735 40.593 35.0145C45.0615 31.294 51.1183 29.1991 57.4377 29.1884C63.722 29.292 69.7142 31.4167 74.1588 35.1173C78.6033 38.8179 81.1552 43.8072 81.2797 49.0396C81.2668 54.3012 78.7508 59.3442 74.2823 63.0647C69.8138 66.7852 63.757 68.8801 57.4377 68.8908C51.1534 68.7872 45.1611 66.6624 40.7166 62.9618C36.272 59.2612 33.7201 54.272 33.5957 49.0396ZM57.4377 36.4807C54.4823 36.4406 51.58 37.1363 49.1025 38.4785C46.6251 39.8207 44.6855 41.7482 43.5322 44.0142C42.3789 46.2801 42.0646 48.7811 42.6294 51.1967C43.1942 53.6123 44.6126 55.8325 46.7026 57.5727C48.7926 59.3128 51.4591 60.4938 54.3603 60.9641C57.2616 61.4344 60.2654 61.1726 62.9868 60.2124C65.7083 59.2521 68.0233 57.6372 69.6353 55.5744C71.2474 53.5117 72.0829 51.0951 72.0348 48.6345C72.0348 45.4111 70.4969 42.3197 67.7594 40.0404C65.0219 37.7611 61.3091 36.4807 57.4377 36.4807Z" fill="#F8EEDE"/>
<path d="M75.9276 28.3785C75.9004 27.7339 76.0328 27.0916 76.3167 26.4916C76.6005 25.8915 77.0296 25.3465 77.5773 24.8905C78.125 24.4345 78.7796 24.0772 79.5003 23.8409C80.221 23.6046 80.9924 23.4943 81.7665 23.5169C83.2813 23.6022 84.7076 24.1418 85.7812 25.0357C86.8548 25.9296 87.5028 27.1172 87.6053 28.3785C87.6053 29.6678 86.9902 30.9044 85.8952 31.8161C84.8002 32.7278 83.315 33.24 81.7665 33.24C80.2179 33.24 78.7328 32.7278 77.6378 31.8161C76.5428 30.9044 75.9276 29.6678 75.9276 28.3785Z" fill="#F8EEDE"/>
</svg>
