<svg width="102" height="98" viewBox="0 0 102 98" fill="none" xmlns="http://www.w3.org/2000/svg">
<path d="M51.0128 0H50.9873C22.8672 0 6.69179e-05 21.9765 6.69179e-05 48.9999C-0.0173948 59.3206 3.38295 69.379 9.70918 77.72L3.35331 95.9235L22.9564 89.9026C31.2718 95.203 41.0338 98.0204 51.0128 97.9999C79.1329 97.9999 102 76.0173 102 48.9999C102 21.9826 79.1329 0 51.0128 0Z" fill="#F8EEDE"/>
<path d="M80.6884 69.194C79.458 72.5322 74.5748 75.3007 70.6796 76.1092C68.0149 76.6543 64.5341 77.0892 52.8169 72.4219C37.8293 66.4562 28.1775 51.8236 27.4253 50.8742C26.7049 49.9248 21.3691 43.1261 21.3691 36.0946C21.3691 29.0631 25.0857 25.6392 26.5838 24.1692C27.8142 22.9626 29.8478 22.4113 31.7985 22.4113C32.4297 22.4113 32.997 22.442 33.507 22.4665C35.0052 22.5277 35.7574 22.6135 36.7455 24.8858C37.9759 27.734 40.9722 34.7655 41.3292 35.4882C41.6925 36.211 42.0559 37.191 41.5459 38.1403C41.0678 39.1203 40.647 39.5552 39.8948 40.3882C39.1425 41.2212 38.4285 41.8582 37.6763 42.7525C36.9878 43.5303 36.21 44.3633 37.077 45.8027C37.944 47.2114 40.9403 51.9093 45.3518 55.6823C51.0447 60.5517 55.6601 62.1074 57.3113 62.7689C58.5416 63.2589 60.0079 63.1426 60.9068 62.2238C62.0479 61.0417 63.4568 59.0817 64.8911 57.1523C65.9111 55.7681 67.1989 55.5966 68.5504 56.0866C69.9274 56.5459 77.214 60.0066 78.7121 60.7232C80.2103 61.4459 81.1984 61.7889 81.5618 62.3953C81.9188 63.0017 81.9188 65.8498 80.6884 69.194Z" fill="#BA431D"/>
</svg>
