<svg width="110" height="83" viewBox="0 0 110 83" fill="none" xmlns="http://www.w3.org/2000/svg">
<path d="M94.375 83H15.625C11.4825 82.9949 7.51103 81.25 4.58183 78.1482C1.65263 75.0465 0.00486497 70.8411 0 66.4545V16.5455C0.00486497 12.1589 1.65263 7.95352 4.58183 4.85175C7.51103 1.74999 11.4825 0.00515157 15.625 0H94.375C98.5175 0.00515157 102.489 1.74999 105.418 4.85175C108.347 7.95352 109.995 12.1589 110 16.5455V66.4545C109.995 70.8411 108.347 75.0465 105.418 78.1482C102.489 81.25 98.5175 82.9949 94.375 83ZM15.625 5.83959C12.9436 5.83959 10.372 6.96753 8.47594 8.97528C6.5799 10.983 5.51471 13.7061 5.51471 16.5455V66.4545C5.51471 69.2939 6.5799 72.017 8.47594 74.0247C10.372 76.0325 12.9436 77.1604 15.625 77.1604H94.375C97.0564 77.1604 99.628 76.0325 101.524 74.0247C103.42 72.017 104.485 69.2939 104.485 66.4545V16.5455C104.485 13.7061 103.42 10.983 101.524 8.97528C99.628 6.96753 97.0564 5.83959 94.375 5.83959H15.625Z" fill="#F8EEDE"/>
<path d="M55 53.3349C51.5985 53.3405 48.2879 52.172 45.5699 50.0063L2.64706 15.6306C2.34379 15.4052 2.08653 15.1175 1.89063 14.7844C1.69474 14.4514 1.56424 14.08 1.50692 13.6924C1.44959 13.3048 1.46663 12.9089 1.55701 12.5285C1.64739 12.148 1.80925 11.7907 2.03294 11.4779C2.25662 11.1652 2.53754 10.9034 2.85891 10.7081C3.18028 10.5129 3.53551 10.3882 3.90339 10.3416C4.27127 10.295 4.64425 10.3273 5.00006 10.4368C5.35586 10.5462 5.6872 10.7304 5.97427 10.9784L48.8971 45.3931C50.6597 46.7864 52.8004 47.5391 55 47.5391C57.1996 47.5391 59.3403 46.7864 61.1029 45.3931L104.026 10.9784C104.313 10.7304 104.644 10.5462 105 10.4368C105.356 10.3273 105.729 10.295 106.097 10.3416C106.465 10.3882 106.82 10.5129 107.141 10.7081C107.462 10.9034 107.743 11.1652 107.967 11.4779C108.191 11.7907 108.353 12.148 108.443 12.5285C108.533 12.9089 108.55 13.3048 108.493 13.6924C108.436 14.08 108.305 14.4514 108.109 14.7844C107.913 15.1175 107.656 15.4052 107.353 15.6306L64.4302 50.0063C61.7121 52.172 58.4015 53.3405 55 53.3349Z" fill="#F8EEDE"/>
<path d="M3.84191 74.8635C3.28267 74.8644 2.7364 74.6852 2.27558 74.3496C1.81477 74.0141 1.46119 73.5381 1.26177 72.9849C1.06235 72.4316 1.02652 71.8272 1.15902 71.2519C1.29153 70.6766 1.58611 70.1575 2.00368 69.7636L35.8272 37.8211C36.3732 37.3048 37.0906 37.0394 37.8214 37.0832C38.5523 37.127 39.2367 37.4764 39.7243 38.0546C40.2118 38.6328 40.4625 39.3924 40.4211 40.1663C40.3797 40.9402 40.0497 41.665 39.5037 42.1813L5.68015 74.1238C5.17785 74.6078 4.52097 74.8721 3.84191 74.8635ZM106.158 74.8635C105.479 74.8721 104.822 74.6078 104.32 74.1238L70.4963 42.1813C69.9503 41.665 69.6203 40.9402 69.5789 40.1663C69.5376 39.3924 69.7882 38.6328 70.2757 38.0546C70.7633 37.4764 71.4477 37.127 72.1786 37.0832C72.9094 37.0394 73.6268 37.3048 74.1728 37.8211L107.978 69.7636C108.396 70.1575 108.69 70.6766 108.823 71.2519C108.955 71.8272 108.919 72.4316 108.72 72.9849C108.52 73.5381 108.167 74.0141 107.706 74.3496C107.245 74.6852 106.699 74.8644 106.14 74.8635H106.158Z" fill="#F8EEDE"/>
</svg>
